<?xml version="1.0" encoding="UTF-8"?>
<!DOCTYPE svg PUBLIC "-//W3C//DTD SVG 1.1//EN" "http://www.w3.org/Graphics/SVG/1.1/DTD/svg11.dtd">
<svg xmlns="http://www.w3.org/2000/svg" version="1.1" width="51px" height="18px" style="shape-rendering:geometricPrecision; text-rendering:geometricPrecision; image-rendering:optimizeQuality; fill-rule:evenodd; clip-rule:evenodd" xmlns:xlink="http://www.w3.org/1999/xlink">
<g><path style="opacity:0.869" fill="#86d06d" d="M 6.5,-0.5 C 6.83333,-0.5 7.16667,-0.5 7.5,-0.5C 6.98619,1.36637 6.31952,3.19971 5.5,5C 5.78807,8.10355 7.45473,9.60355 10.5,9.5C 23.3638,6.45223 36.0304,3.1189 48.5,-0.5C 48.8333,-0.5 49.1667,-0.5 49.5,-0.5C 49.4226,0.749754 48.756,1.58309 47.5,2C 34.9443,6.89941 22.611,12.0661 10.5,17.5C 7.83333,17.5 5.16667,17.5 2.5,17.5C 1.5,16.5 0.5,15.5 -0.5,14.5C -0.5,12.8333 -0.5,11.1667 -0.5,9.5C 1.32826,5.85443 3.66159,2.5211 6.5,-0.5 Z"/></g>
</svg>
