<?xml version="1.0" encoding="UTF-8"?>
<!DOCTYPE svg PUBLIC "-//W3C//DTD SVG 1.1//EN" "http://www.w3.org/Graphics/SVG/1.1/DTD/svg11.dtd">
<svg xmlns="http://www.w3.org/2000/svg" version="1.1" width="767px" height="472px" style="shape-rendering:geometricPrecision; text-rendering:geometricPrecision; image-rendering:optimizeQuality; fill-rule:evenodd; clip-rule:evenodd" xmlns:xlink="http://www.w3.org/1999/xlink">
<g><path style="opacity:0.994" fill="#eeffe9" d="M 764.5,-0.5 C 764.833,-0.5 765.167,-0.5 765.5,-0.5C 760.348,4.77135 754.682,9.60468 748.5,14C 568.549,150.283 388.883,286.95 209.5,424C 184.471,442.517 157.138,456.85 127.5,467C 118.076,468.84 108.742,470.34 99.5,471.5C 91.5,471.5 83.5,471.5 75.5,471.5C 30.6908,467.192 5.85744,442.525 1,397.5C -0.750208,374.244 0.916459,351.244 6,328.5C 17.7546,275.676 38.7546,227.01 69,182.5C 64.9927,197.874 61.9927,213.541 60,229.5C 58.4104,247.413 59.7437,265.08 64,282.5C 75.1347,315.159 97.968,332.493 132.5,334.5C 149.886,333.82 166.553,329.987 182.5,323C 194.112,317.861 205.446,312.194 216.5,306C 288.996,264.92 361.329,223.586 433.5,182C 544.217,121.646 654.55,60.813 764.5,-0.5 Z"/></g>
</svg>
