<?xml version="1.0" encoding="UTF-8"?>
<!DOCTYPE svg PUBLIC "-//W3C//DTD SVG 1.1//EN" "http://www.w3.org/Graphics/SVG/1.1/DTD/svg11.dtd">
<svg xmlns="http://www.w3.org/2000/svg" version="1.1" width="116px" height="116px" style="shape-rendering:geometricPrecision; text-rendering:geometricPrecision; image-rendering:optimizeQuality; fill-rule:evenodd; clip-rule:evenodd" xmlns:xlink="http://www.w3.org/1999/xlink">
<g><path style="opacity:0.875" fill="#c2e76b" d="M 51.5,-0.5 C 55.8333,-0.5 60.1667,-0.5 64.5,-0.5C 91.8536,4.52084 108.854,20.5208 115.5,47.5C 115.5,54.5 115.5,61.5 115.5,68.5C 108.729,93.6049 92.7286,109.272 67.5,115.5C 61.1667,115.5 54.8333,115.5 48.5,115.5C 20.5582,108.647 4.22482,90.9802 -0.5,62.5C -0.5,59.5 -0.5,56.5 -0.5,53.5C 4.25234,23.4139 21.5857,5.41388 51.5,-0.5 Z"/></g>
<g><path style="opacity:1" fill="#f4f4f3" d="M 46.5,1.5 C 76.5404,-1.40457 98.0404,10.5954 111,37.5C 118.503,62.658 112.67,84.158 93.5,102C 63.9744,121.243 37.1411,118.076 13,92.5C -2.96369,67.9554 -2.29702,43.9554 15,20.5C 23.6301,10.9404 34.1301,4.60708 46.5,1.5 Z"/></g>
<g><path style="opacity:1" fill="#4a4245" d="M 71.5,43.5 C 73.4163,48.7574 76.7497,49.7574 81.5,46.5C 81.5,47.8333 81.5,49.1667 81.5,50.5C 77.4432,50.8478 73.4432,51.5145 69.5,52.5C 68.5081,50.9735 67.0081,50.3068 65,50.5C 61.7997,51.0683 58.6331,51.7349 55.5,52.5C 55.631,51.7611 55.4643,51.0944 55,50.5C 54.6232,51.9423 53.7899,52.9423 52.5,53.5C 50.4513,54.6414 48.4513,54.6414 46.5,53.5C 44.7673,52.9924 44.434,52.159 45.5,51C 48.2204,50.2033 50.7204,49.0367 53,47.5C 53.3333,47.8333 53.6667,48.1667 54,48.5C 56.8617,46.9296 59.6951,45.263 62.5,43.5C 64.2104,44.6873 65.7104,44.354 67,42.5C 68.605,43.1007 69.9384,44.1007 71,45.5C 71.4643,44.9056 71.631,44.2389 71.5,43.5 Z"/></g>
<g><path style="opacity:1" fill="#1f1f21" d="M 87.5,50.5 C 87.8957,53.0444 87.229,55.2111 85.5,57C 81.5138,57.4988 77.5138,57.6655 73.5,57.5C 72.4376,56.4246 72.4376,55.4246 73.5,54.5C 76.3584,53.3391 79.025,52.0057 81.5,50.5C 81.5,49.1667 81.5,47.8333 81.5,46.5C 81.7118,44.6159 82.7118,43.2826 84.5,42.5C 85.8972,45.0258 86.8972,47.6924 87.5,50.5 Z"/></g>
<g><path style="opacity:1" fill="#ad202c" d="M 69.5,52.5 C 69.5,52.8333 69.5,53.1667 69.5,53.5C 66.8478,53.4095 64.5145,54.0762 62.5,55.5C 60.4727,55.6621 58.4727,55.4955 56.5,55C 55.7476,54.3292 55.4142,53.4959 55.5,52.5C 58.6331,51.7349 61.7997,51.0683 65,50.5C 67.0081,50.3068 68.5081,50.9735 69.5,52.5 Z"/></g>
<g><path style="opacity:1" fill="#d8353f" d="M 71.5,43.5 C 71.631,44.2389 71.4643,44.9056 71,45.5C 69.9384,44.1007 68.605,43.1007 67,42.5C 65.7104,44.354 64.2104,44.6873 62.5,43.5C 59.6951,45.263 56.8617,46.9296 54,48.5C 53.6667,48.1667 53.3333,47.8333 53,47.5C 50.7204,49.0367 48.2204,50.2033 45.5,51C 44.434,52.159 44.7673,52.9924 46.5,53.5C 45.0645,55.083 43.3978,56.583 41.5,58C 40.1667,58.1667 38.8333,58.3333 37.5,58.5C 33.0065,58.4678 29.0065,57.4678 25.5,55.5C 25.62,54.4138 26.2867,53.7472 27.5,53.5C 34.7434,52.5854 41.7434,50.752 48.5,48C 54.6995,45.0221 61.0328,42.1888 67.5,39.5C 69.188,40.5213 70.5213,41.8546 71.5,43.5 Z"/></g>
<g><path style="opacity:1" fill="#a08d8d" d="M 81.5,50.5 C 79.025,52.0057 76.3584,53.3391 73.5,54.5C 72.4376,55.4246 72.4376,56.4246 73.5,57.5C 72.1266,57.6567 70.7932,57.49 69.5,57C 70.056,56.6174 70.3893,56.1174 70.5,55.5C 72.0311,54.0755 71.6977,53.4088 69.5,53.5C 69.5,53.1667 69.5,52.8333 69.5,52.5C 73.4432,51.5145 77.4432,50.8478 81.5,50.5 Z"/></g>
<g><path style="opacity:1" fill="#b18387" d="M 69.5,53.5 C 67.4855,54.9238 65.1522,55.5905 62.5,55.5C 64.5145,54.0762 66.8478,53.4095 69.5,53.5 Z"/></g>
<g><path style="opacity:1" fill="#b89497" d="M 55.5,52.5 C 55.4142,53.4959 55.7476,54.3292 56.5,55C 58.4727,55.4955 60.4727,55.6621 62.5,55.5C 59.5308,57.0063 56.6975,56.673 54,54.5C 53.5357,55.0944 53.369,55.7611 53.5,56.5C 52.7321,57.2625 52.2321,58.2625 52,59.5C 51.5099,57.4546 51.6765,55.4546 52.5,53.5C 53.7899,52.9423 54.6232,51.9423 55,50.5C 55.4643,51.0944 55.631,51.7611 55.5,52.5 Z"/></g>
<g><path style="opacity:1" fill="#c4c2c2" d="M 87.5,50.5 C 88.399,53.9325 90.399,56.7658 93.5,59C 93.2716,59.3988 92.9382,59.5654 92.5,59.5C 90.1667,61.1667 88.1667,63.1667 86.5,65.5C 80.5594,66.4128 74.5594,66.7461 68.5,66.5C 64.5,66.5 60.5,66.5 56.5,66.5C 53.2869,66.81 50.2869,66.4767 47.5,65.5C 51.9927,64.7254 55.9927,62.8921 59.5,60C 59.1667,59.6667 58.8333,59.3333 58.5,59C 62.5845,58.019 66.5845,56.8523 70.5,55.5C 70.3893,56.1174 70.056,56.6174 69.5,57C 70.7932,57.49 72.1266,57.6567 73.5,57.5C 77.5138,57.6655 81.5138,57.4988 85.5,57C 87.229,55.2111 87.8957,53.0444 87.5,50.5 Z"/></g>
<g><path style="opacity:1" fill="#ac2530" d="M 46.5,53.5 C 48.4513,54.6414 50.4513,54.6414 52.5,53.5C 51.6765,55.4546 51.5099,57.4546 52,59.5C 52.2321,58.2625 52.7321,57.2625 53.5,56.5C 53.5,57.5 53.5,58.5 53.5,59.5C 54.8734,59.3433 56.2068,59.51 57.5,60C 47.9117,62.4729 38.245,62.9729 28.5,61.5C 27.1667,60.8333 25.8333,60.1667 24.5,59.5C 24.2322,57.901 24.5655,56.5676 25.5,55.5C 29.0065,57.4678 33.0065,58.4678 37.5,58.5C 38.8333,58.3333 40.1667,58.1667 41.5,58C 43.3978,56.583 45.0645,55.083 46.5,53.5 Z"/></g>
<g><path style="opacity:1" fill="#9b6f71" d="M 24.5,59.5 C 25.8333,60.1667 27.1667,60.8333 28.5,61.5C 29.8333,62.5 31.1667,63.5 32.5,64.5C 32.44,65.0431 32.1067,65.3764 31.5,65.5C 28.0469,64.6341 25.7136,62.6341 24.5,59.5 Z"/></g>
<g><path style="opacity:1" fill="#93121a" d="M 69.5,53.5 C 71.6977,53.4088 72.0311,54.0755 70.5,55.5C 66.5845,56.8523 62.5845,58.019 58.5,59C 58.8333,59.3333 59.1667,59.6667 59.5,60C 55.9927,62.8921 51.9927,64.7254 47.5,65.5C 43.3998,65.7633 39.3998,65.4299 35.5,64.5C 34.5,64.5 33.5,64.5 32.5,64.5C 31.1667,63.5 29.8333,62.5 28.5,61.5C 38.245,62.9729 47.9117,62.4729 57.5,60C 56.2068,59.51 54.8734,59.3433 53.5,59.5C 53.5,58.5 53.5,57.5 53.5,56.5C 53.369,55.7611 53.5357,55.0944 54,54.5C 56.6975,56.673 59.5308,57.0063 62.5,55.5C 65.1522,55.5905 67.4855,54.9238 69.5,53.5 Z"/></g>
<g><path style="opacity:1" fill="#ad787c" d="M 92.5,59.5 C 91.5,62.5 89.5,64.5 86.5,65.5C 88.1667,63.1667 90.1667,61.1667 92.5,59.5 Z"/></g>
<g><path style="opacity:1" fill="#907c7d" d="M 35.5,64.5 C 39.3998,65.4299 43.3998,65.7633 47.5,65.5C 50.2869,66.4767 53.2869,66.81 56.5,66.5C 50.3226,67.7278 43.9893,67.7278 37.5,66.5C 36.5,66.6667 35.5,66.8333 34.5,67C 36.3817,67.1981 38.0484,67.6981 39.5,68.5C 35.774,68.8226 32.1073,68.4892 28.5,67.5C 31.1024,66.8676 33.4357,65.8676 35.5,64.5 Z"/></g>
<g><path style="opacity:1" fill="#99797b" d="M 86.5,65.5 C 86.1667,66.1667 85.8333,66.8333 85.5,67.5C 79.642,67.8222 73.9753,67.4889 68.5,66.5C 74.5594,66.7461 80.5594,66.4128 86.5,65.5 Z"/></g>
<g><path style="opacity:1" fill="#492928" d="M 56.5,66.5 C 60.5,66.5 64.5,66.5 68.5,66.5C 73.9753,67.4889 79.642,67.8222 85.5,67.5C 71.5492,68.5016 56.2159,68.8349 39.5,68.5C 38.0484,67.6981 36.3817,67.1981 34.5,67C 35.5,66.8333 36.5,66.6667 37.5,66.5C 43.9893,67.7278 50.3226,67.7278 56.5,66.5 Z"/></g>
</svg>
