<?xml version="1.0" encoding="UTF-8"?>
<!DOCTYPE svg PUBLIC "-//W3C//DTD SVG 1.1//EN" "http://www.w3.org/Graphics/SVG/1.1/DTD/svg11.dtd">
<svg xmlns="http://www.w3.org/2000/svg" version="1.1" width="116px" height="116px" style="shape-rendering:geometricPrecision; text-rendering:geometricPrecision; image-rendering:optimizeQuality; fill-rule:evenodd; clip-rule:evenodd" xmlns:xlink="http://www.w3.org/1999/xlink">
<g><path style="opacity:0.516" fill="#c2e76b" d="M 51.5,-0.5 C 55.8333,-0.5 60.1667,-0.5 64.5,-0.5C 91.8236,4.48923 108.824,20.4892 115.5,47.5C 115.5,54.1667 115.5,60.8333 115.5,67.5C 109.167,93.1667 93.1667,109.167 67.5,115.5C 61.1667,115.5 54.8333,115.5 48.5,115.5C 20.48,109.147 4.14664,91.8141 -0.5,63.5C -0.5,59.5 -0.5,55.5 -0.5,51.5C 5.16667,22.5 22.5,5.16667 51.5,-0.5 Z"/></g>
<g><path style="opacity:1" fill="#f4f4f3" d="M 46.5,1.5 C 82.5053,-1.26425 105.005,14.7358 114,49.5C 116.033,79.7697 103.033,100.436 75,111.5C 48.0983,118.533 26.4317,110.867 10,88.5C -5.83097,58.3417 -0.664302,32.5084 25.5,11C 32.0953,6.69803 39.0953,3.53137 46.5,1.5 Z"/></g>
<g><path style="opacity:1" fill="#6e6d6d" d="M 92.5,65.5 C 91.2511,67.1361 89.5844,68.3028 87.5,69C 68.4689,69.7955 49.4689,69.6288 30.5,68.5C 29.537,67.6365 29.537,66.9698 30.5,66.5C 37.2595,68.184 43.9262,68.5173 50.5,67.5C 63.1711,67.6666 75.8377,67.4999 88.5,67C 89.745,66.2086 91.0783,65.7086 92.5,65.5 Z"/></g>
<g><path style="opacity:1" fill="#9f9b9b" d="M 19.5,60.5 C 27.7797,65.262 36.7797,67.262 46.5,66.5C 47.5676,67.4345 48.901,67.7678 50.5,67.5C 43.9262,68.5173 37.2595,68.184 30.5,66.5C 29.537,66.9698 29.537,67.6365 30.5,68.5C 28.8008,68.6602 27.1341,68.4935 25.5,68C 26.5,67.6667 27.5,67.3333 28.5,67C 24.431,66.069 21.431,63.9024 19.5,60.5 Z"/></g>
<g><path style="opacity:1" fill="#d9d8db" d="M 92.5,65.5 C 91.0783,65.7086 89.745,66.2086 88.5,67C 75.8377,67.4999 63.1711,67.6666 50.5,67.5C 48.901,67.7678 47.5676,67.4345 46.5,66.5C 51.7564,64.5489 57.0898,62.5489 62.5,60.5C 66.3821,59.1971 70.3821,58.5304 74.5,58.5C 81.7978,59.0371 82.1311,57.3705 75.5,53.5C 75.573,51.9731 74.9063,50.9731 73.5,50.5C 73.1961,49.8501 72.8627,49.1835 72.5,48.5C 73.6016,47.8243 74.6016,47.1577 75.5,46.5C 78.0728,47.5552 80.7395,47.7218 83.5,47C 85.4521,44.9261 87.2854,42.7594 89,40.5C 90.631,45.0153 91.9644,49.682 93,54.5C 94.3076,56.6414 95.8076,58.6414 97.5,60.5C 96.4756,62.9456 94.8089,64.6123 92.5,65.5 Z"/></g>
<g><path style="opacity:1" fill="#7d7b7b" d="M 73.5,54.5 C 72.3998,55.5585 71.0664,56.3918 69.5,57C 71.3817,57.1981 73.0484,57.6981 74.5,58.5C 70.3821,58.5304 66.3821,59.1971 62.5,60.5C 65.336,57.2435 69.0027,55.2435 73.5,54.5 Z"/></g>
<g><path style="opacity:1" fill="#2c2c2c" d="M 75.5,53.5 C 82.1311,57.3705 81.7978,59.0371 74.5,58.5C 73.0484,57.6981 71.3817,57.1981 69.5,57C 71.0664,56.3918 72.3998,55.5585 73.5,54.5C 74.4916,54.6716 75.1583,54.3382 75.5,53.5 Z"/></g>
<g><path style="opacity:1" fill="#1c1c1c" d="M 38.5,49.5 C 39.8471,50.1712 41.0138,50.1712 42,49.5C 43.6559,53.2088 46.3226,54.5421 50,53.5C 50.9454,53.9054 51.6121,54.572 52,55.5C 53.2492,53.0085 54.4158,53.1751 55.5,56C 57.3869,56.7796 59.0536,56.6129 60.5,55.5C 64.936,54.9745 69.2693,53.9745 73.5,52.5C 74.463,52.9698 74.463,53.6365 73.5,54.5C 69.0027,55.2435 65.336,57.2435 62.5,60.5C 57.0898,62.5489 51.7564,64.5489 46.5,66.5C 36.7797,67.262 27.7797,65.262 19.5,60.5C 18.0209,57.8569 18.3542,55.3569 20.5,53C 26.4052,51.2938 32.4052,50.1272 38.5,49.5 Z"/></g>
<g><path style="opacity:1" fill="#7a7979" d="M 73.5,50.5 C 74.9063,50.9731 75.573,51.9731 75.5,53.5C 75.1583,54.3382 74.4916,54.6716 73.5,54.5C 74.463,53.6365 74.463,52.9698 73.5,52.5C 69.2693,53.9745 64.936,54.9745 60.5,55.5C 63.7649,53.9679 67.0982,52.6346 70.5,51.5C 71.791,51.7373 72.791,51.404 73.5,50.5 Z"/></g>
<g><path style="opacity:1" fill="#181919" d="M 70.5,51.5 C 67.0982,52.6346 63.7649,53.9679 60.5,55.5C 57.0504,56.2436 55.3838,54.9103 55.5,51.5C 58.9615,51.4336 62.2949,50.7669 65.5,49.5C 67.5566,49.4357 69.2233,50.1024 70.5,51.5 Z"/></g>
<g><path style="opacity:1" fill="#4c494e" d="M 60.5,40.5 C 61.2625,41.2679 62.2625,41.7679 63.5,42C 62.9655,45.5982 60.9655,47.7648 57.5,48.5C 58.3768,45.7558 57.3768,45.0891 54.5,46.5C 54.8627,47.1835 55.1961,47.8501 55.5,48.5C 55.5,49.5 55.5,50.5 55.5,51.5C 55.3838,54.9103 57.0504,56.2436 60.5,55.5C 59.0536,56.6129 57.3869,56.7796 55.5,56C 54.4158,53.1751 53.2492,53.0085 52,55.5C 51.6121,54.572 50.9454,53.9054 50,53.5C 46.3226,54.5421 43.6559,53.2088 42,49.5C 41.0138,50.1712 39.8471,50.1712 38.5,49.5C 45.9774,47.116 53.3107,44.116 60.5,40.5 Z"/></g>
<g><path style="opacity:1" fill="#8c758f" d="M 57.5,48.5 C 56.8333,48.5 56.1667,48.5 55.5,48.5C 55.1961,47.8501 54.8627,47.1835 54.5,46.5C 57.3768,45.0891 58.3768,45.7558 57.5,48.5 Z"/></g>
<g><path style="opacity:1" fill="#333638" d="M 75.5,46.5 C 74.6016,47.1577 73.6016,47.8243 72.5,48.5C 72.8627,49.1835 73.1961,49.8501 73.5,50.5C 72.791,51.404 71.791,51.7373 70.5,51.5C 69.2233,50.1024 67.5566,49.4357 65.5,49.5C 62.2949,50.7669 58.9615,51.4336 55.5,51.5C 55.5,50.5 55.5,49.5 55.5,48.5C 56.1667,48.5 56.8333,48.5 57.5,48.5C 60.9655,47.7648 62.9655,45.5982 63.5,42C 62.2625,41.7679 61.2625,41.2679 60.5,40.5C 63.0456,38.2294 66.0456,37.0628 69.5,37C 71.6126,37.8717 72.9459,39.3717 73.5,41.5C 70.9258,44.0175 71.5925,45.6842 75.5,46.5 Z"/></g>
</svg>
