<?xml version="1.0" encoding="UTF-8"?>
<!DOCTYPE svg PUBLIC "-//W3C//DTD SVG 1.1//EN" "http://www.w3.org/Graphics/SVG/1.1/DTD/svg11.dtd">
<svg xmlns="http://www.w3.org/2000/svg" version="1.1" width="117px" height="116px" style="shape-rendering:geometricPrecision; text-rendering:geometricPrecision; image-rendering:optimizeQuality; fill-rule:evenodd; clip-rule:evenodd" xmlns:xlink="http://www.w3.org/1999/xlink">
<g><path style="opacity:0.439" fill="#f1f3ea" d="M 51.5,-0.5 C 55.8333,-0.5 60.1667,-0.5 64.5,-0.5C 94.8727,5.53863 112.206,23.872 116.5,54.5C 116.5,56.5 116.5,58.5 116.5,60.5C 112.516,89.8185 96.1823,108.152 67.5,115.5C 61.1667,115.5 54.8333,115.5 48.5,115.5C 18.8808,107.883 2.54746,88.8833 -0.5,58.5C -0.5,57.8333 -0.5,57.1667 -0.5,56.5C 2.87187,24.7937 20.2052,5.79365 51.5,-0.5 Z"/></g>
<g><path style="opacity:1" fill="#b6e249" d="M 46.5,1.5 C 81.8037,-1.61945 104.304,13.7139 114,47.5C 116.785,80.4486 102.618,102.282 71.5,113C 41.8634,117.793 20.0301,106.96 6,80.5C -4.71661,47.7886 4.78339,22.9552 34.5,6C 38.5711,4.36954 42.5711,2.86954 46.5,1.5 Z"/></g>
<g><path style="opacity:1" fill="#b2e041" d="M 49.5,12.5 C 78.0206,10.3283 95.854,22.9949 103,50.5C 104.832,78.3226 92.332,95.8226 65.5,103C 37.2263,104.713 19.7263,91.8794 13,64.5C 11.6289,37.5524 23.7955,20.2191 49.5,12.5 Z"/></g>
<g><path style="opacity:1" fill="#819f35" d="M 89.5,69.5 C 90.3984,70.1577 91.3984,70.8243 92.5,71.5C 71.3372,72.8282 50.3372,72.8282 29.5,71.5C 37.1667,71.5 44.8333,71.5 52.5,71.5C 57.8333,71.5 63.1667,71.5 68.5,71.5C 69.5,71.5 70.5,71.5 71.5,71.5C 77.7921,72.0531 83.7921,71.3864 89.5,69.5 Z"/></g>
<g><path style="opacity:1" fill="#cdd7af" d="M 93.5,59.5 C 94.5,61.5 95.5,63.5 96.5,65.5C 94.9731,65.427 93.9731,66.0937 93.5,67.5C 86.178,69.5981 78.8447,70.9314 71.5,71.5C 70.5,71.5 69.5,71.5 68.5,71.5C 66.5201,69.8951 64.1868,68.7285 61.5,68C 58.8171,63.3774 59.8171,62.544 64.5,65.5C 67.5019,63.9036 70.5019,62.5702 73.5,61.5C 73.8333,61.5 74.1667,61.5 74.5,61.5C 80.8135,60.6721 87.1468,60.0054 93.5,59.5 Z"/></g>
<g><path style="opacity:1" fill="#606d42" d="M 93.5,67.5 C 92.4863,68.6737 91.153,69.3404 89.5,69.5C 83.7921,71.3864 77.7921,72.0531 71.5,71.5C 78.8447,70.9314 86.178,69.5981 93.5,67.5 Z"/></g>
<g><path style="opacity:1" fill="#6c7e3e" d="M 96.5,65.5 C 96.0269,66.9063 95.0269,67.573 93.5,67.5C 93.9731,66.0937 94.9731,65.427 96.5,65.5 Z"/></g>
<g><path style="opacity:1" fill="#bbc59a" d="M 37.5,62.5 C 43.489,60.8318 49.1557,61.4985 54.5,64.5C 55.2506,65.5735 56.2506,65.7401 57.5,65C 58.0848,63.6976 58.7515,62.531 59.5,61.5C 64.1667,61.5 68.8333,61.5 73.5,61.5C 70.5019,62.5702 67.5019,63.9036 64.5,65.5C 59.8171,62.544 58.8171,63.3774 61.5,68C 64.1868,68.7285 66.5201,69.8951 68.5,71.5C 63.1667,71.5 57.8333,71.5 52.5,71.5C 48.3202,65.0392 43.3202,64.2058 37.5,69C 34.8323,69.567 32.1656,70.067 29.5,70.5C 27.7274,69.1077 25.7274,67.941 23.5,67C 21.5359,65.549 20.2026,63.7157 19.5,61.5C 19.4346,61.0618 19.6012,60.7284 20,60.5C 24.8331,61.7267 29.6664,63.0601 34.5,64.5C 36.0377,64.5466 37.0377,63.8799 37.5,62.5 Z"/></g>
<g><path style="opacity:1" fill="#3e4926" d="M 52.5,71.5 C 44.8333,71.5 37.1667,71.5 29.5,71.5C 21.5,71.1667 21.5,70.8333 29.5,70.5C 32.1656,70.067 34.8323,69.567 37.5,69C 43.3202,64.2058 48.3202,65.0392 52.5,71.5 Z"/></g>
<g><path style="opacity:1" fill="#515d37" d="M 53.5,59.5 C 55.4011,60.935 55.7345,62.6017 54.5,64.5C 49.1557,61.4985 43.489,60.8318 37.5,62.5C 37.5608,59.9505 38.8941,58.4505 41.5,58C 45.6489,57.3308 49.6489,57.8308 53.5,59.5 Z"/></g>
<g><path style="opacity:1" fill="#adda41" d="M 93.5,59.5 C 87.1468,60.0054 80.8135,60.6721 74.5,61.5C 74.5,60.5 74.5,59.5 74.5,58.5C 72.5853,58.7845 70.9187,58.4511 69.5,57.5C 72.3777,55.8946 75.3777,54.5612 78.5,53.5C 80.1401,52.6799 81.8068,51.8466 83.5,51C 81.2251,50.595 79.2251,51.095 77.5,52.5C 74.3136,53.3379 71.1469,54.3379 68,55.5C 65.0844,52.5582 63.5844,53.2249 63.5,57.5C 63.0825,58.2216 62.4158,58.7216 61.5,59C 61.8333,59.3333 62.1667,59.6667 62.5,60C 61.2625,60.2321 60.2625,60.7321 59.5,61.5C 58.7515,62.531 58.0848,63.6976 57.5,65C 56.2506,65.7401 55.2506,65.5735 54.5,64.5C 55.7345,62.6017 55.4011,60.935 53.5,59.5C 60.116,57.7054 60.116,55.5388 53.5,53C 55.8333,52.6667 58.1667,52.3333 60.5,52C 62.5268,50.6043 62.8602,48.9376 61.5,47C 64.2565,46.0617 66.5899,44.5617 68.5,42.5C 74.3096,46.2982 79.9763,48.4649 85.5,49C 85.0426,48.586 84.7093,48.086 84.5,47.5C 85.6509,45.2269 86.6509,42.8935 87.5,40.5C 89.7498,46.7431 91.7498,53.0765 93.5,59.5 Z"/></g>
<g><path style="opacity:1" fill="#89b136" d="M 63.5,57.5 C 65.4513,58.6414 67.4513,58.6414 69.5,57.5C 70.9187,58.4511 72.5853,58.7845 74.5,58.5C 74.5,59.5 74.5,60.5 74.5,61.5C 74.1667,61.5 73.8333,61.5 73.5,61.5C 68.8333,61.5 64.1667,61.5 59.5,61.5C 60.2625,60.7321 61.2625,60.2321 62.5,60C 62.1667,59.6667 61.8333,59.3333 61.5,59C 62.4158,58.7216 63.0825,58.2216 63.5,57.5 Z"/></g>
<g><path style="opacity:1" fill="#3f4c22" d="M 77.5,52.5 C 78.1667,52.5 78.5,52.8333 78.5,53.5C 75.3777,54.5612 72.3777,55.8946 69.5,57.5C 67.4513,58.6414 65.4513,58.6414 63.5,57.5C 63.5844,53.2249 65.0844,52.5582 68,55.5C 71.1469,54.3379 74.3136,53.3379 77.5,52.5 Z"/></g>
<g><path style="opacity:1" fill="#c1e663" d="M 68.5,42.5 C 66.5899,44.5617 64.2565,46.0617 61.5,47C 62.8602,48.9376 62.5268,50.6043 60.5,52C 58.1667,52.3333 55.8333,52.6667 53.5,53C 60.116,55.5388 60.116,57.7054 53.5,59.5C 49.6489,57.8308 45.6489,57.3308 41.5,58C 38.8941,58.4505 37.5608,59.9505 37.5,62.5C 37.0377,63.8799 36.0377,64.5466 34.5,64.5C 29.6664,63.0601 24.8331,61.7267 20,60.5C 19.6012,60.7284 19.4346,61.0618 19.5,61.5C 18.2006,59.8466 18.5339,58.3466 20.5,57C 37.924,54.2523 53.924,48.0856 68.5,38.5C 68.9059,39.5575 68.9059,40.8908 68.5,42.5 Z"/></g>
<g><path style="opacity:1" fill="#789538" d="M 78.5,53.5 C 78.5,52.8333 78.1667,52.5 77.5,52.5C 79.2251,51.095 81.2251,50.595 83.5,51C 81.8068,51.8466 80.1401,52.6799 78.5,53.5 Z"/></g>
</svg>
