<?xml version="1.0" encoding="UTF-8"?>
<!DOCTYPE svg PUBLIC "-//W3C//DTD SVG 1.1//EN" "http://www.w3.org/Graphics/SVG/1.1/DTD/svg11.dtd">
<svg xmlns="http://www.w3.org/2000/svg" version="1.1" width="154px" height="27px" style="shape-rendering:geometricPrecision; text-rendering:geometricPrecision; image-rendering:optimizeQuality; fill-rule:evenodd; clip-rule:evenodd" xmlns:xlink="http://www.w3.org/1999/xlink">
<g><path style="opacity:0.915" fill="#f0e709" d="M 75.5,-0.5 C 76.1667,-0.5 76.8333,-0.5 77.5,-0.5C 78.1667,2.5 78.8333,5.5 79.5,8.5C 82.8499,8.33499 86.1832,8.50166 89.5,9C 87.3333,10.5 85.1667,12 83,13.5C 82.6386,16.4371 83.1386,19.2704 84.5,22C 84.1667,22.5 83.8333,23 83.5,23.5C 81.3428,21.5879 79.0094,19.9213 76.5,18.5C 74.3211,19.7567 72.3211,21.2567 70.5,23C 69.6683,23.6877 69.0016,23.521 68.5,22.5C 70.1029,19.6564 70.6029,16.6564 70,13.5C 67.8333,12 65.6667,10.5 63.5,9C 66.8168,8.50166 70.1501,8.33499 73.5,8.5C 74.1667,5.5 74.8333,2.5 75.5,-0.5 Z"/></g>
<g><path style="opacity:0.925" fill="#f0e709" d="M 107.5,-0.5 C 108.167,-0.5 108.833,-0.5 109.5,-0.5C 110.167,2.5 110.833,5.5 111.5,8.5C 114.85,8.33499 118.183,8.50166 121.5,9C 118.833,11 116.167,13 113.5,15C 118.218,24.7778 116.551,25.9445 108.5,18.5C 105.991,19.9213 103.657,21.5879 101.5,23.5C 101.167,23 100.833,22.5 100.5,22C 101.861,19.2704 102.361,16.4371 102,13.5C 99.8333,12 97.6667,10.5 95.5,9C 98.8168,8.50166 102.15,8.33499 105.5,8.5C 106.167,5.5 106.833,2.5 107.5,-0.5 Z"/></g>
<g><path style="opacity:0.921" fill="#f0e709" d="M 12.5,-0.5 C 12.8333,-0.5 13.1667,-0.5 13.5,-0.5C 14.2021,2.4398 15.2021,5.27313 16.5,8C 19.5,8.33333 22.5,8.66667 25.5,9C 22.6629,10.6721 20.3296,12.8387 18.5,15.5C 19.5533,18.1314 20.0533,20.798 20,23.5C 17.636,21.6372 15.136,19.9705 12.5,18.5C 4.44898,25.9445 2.78231,24.7778 7.5,15C 4.94933,12.8999 2.28267,11.0665 -0.5,9.5C -0.5,9.16667 -0.5,8.83333 -0.5,8.5C 2.89838,8.82036 6.23171,8.48702 9.5,7.5C 10.5084,4.80478 11.5084,2.13811 12.5,-0.5 Z"/></g>
<g><path style="opacity:0.927" fill="#f0e709" d="M 43.5,-0.5 C 44.1667,-0.5 44.8333,-0.5 45.5,-0.5C 46.1667,2.5 46.8333,5.5 47.5,8.5C 50.8499,8.33499 54.1832,8.50166 57.5,9C 54.6629,10.6721 52.3296,12.8387 50.5,15.5C 51.5533,18.1314 52.0533,20.798 52,23.5C 49.586,21.7093 47.086,20.0426 44.5,18.5C 36.449,25.9445 34.7823,24.7778 39.5,15C 36.8333,13 34.1667,11 31.5,9C 34.8818,8.82364 38.2152,8.32364 41.5,7.5C 42.4822,4.90436 43.1489,2.23769 43.5,-0.5 Z"/></g>
<g><path style="opacity:0.909" fill="#eceab8" d="M 139.5,-0.5 C 139.833,-0.5 140.167,-0.5 140.5,-0.5C 141.492,2.13811 142.492,4.80478 143.5,7.5C 146.447,8.32145 149.447,8.82145 152.5,9C 150.353,11.2368 148.02,13.2368 145.5,15C 150.218,24.7778 148.551,25.9445 140.5,18.5C 137.914,20.0426 135.414,21.7093 133,23.5C 132.947,20.798 133.447,18.1314 134.5,15.5C 132.67,12.8387 130.337,10.6721 127.5,9C 130.817,8.50166 134.15,8.33499 137.5,8.5C 137.756,5.40206 138.422,2.40206 139.5,-0.5 Z"/></g>
</svg>
